<svg xmlns="http://www.w3.org/2000/svg" viewBox="0 0 232 32" width="232" height="32" fill="none"><g clip-path="url(#a)"><path fill="#818591" d="M13.44 32c6.1 0 11.04-.38 11.04-.85s-4.94-.86-11.04-.86c-6.1 0-11.04.39-11.04.86s4.94.85 11.04.85Z" opacity=".1"/><path fill="#3E4C5D" d="m39.1 21.23-1.4 6.61h-3.73l5.66-24h4.8l5.76 24h-3.9l-1.49-6.61h-5.7Zm5.11-3.2c-1.06-5.07-1.86-8.54-2.24-10.67h-.1a135 135 0 0 1-2.14 10.67h4.48Zm10.14 9.81-4.64-24h4c1.12 6.67 2.4 14.72 2.72 18.77h.05c.64-4.16 2.61-13.38 3.63-18.77h3.36c.96 4.96 2.93 14.5 3.46 18.61h.11c.53-4.8 2.24-13.76 2.99-18.61h3.73l-4.96 24h-3.73c-1.02-5.17-2.78-13.65-3.36-17.92h-.11c-.59 4.37-2.45 13.01-3.47 17.92h-3.78Zm21.76-24h6.93c3.84 0 6.67 2.4 6.67 6.93 0 4.54-2.56 7.1-7.04 7.1h-2.83v9.97h-3.73v-24Zm3.73 10.99h2.4c2.56 0 3.73-1.28 3.73-4.06 0-2.5-1.28-3.89-3.52-3.89h-2.61v7.95Z"/><path fill="#818591" d="M110.5 21.81c-1.06 3.42-3.67 6.03-8.37 6.03-6.4 0-9.76-4.96-9.76-11.1 0-5.86 3.31-11.14 9.82-11.14 4.8 0 7.62 2.61 8.32 6.24h-1.71c-1.07-2.83-2.88-4.7-6.77-4.7-5.5 0-7.84 4.91-7.84 9.6 0 4.7 2.29 9.55 8 9.55 3.62 0 5.49-1.8 6.61-4.48h1.7Zm4.11 6.03V5.01h1.6v22.83h-1.6Zm17.5-3.3c0 .98.1 1.96.26 2.93h-1.54a9.8 9.8 0 0 1-.27-2.4c-.53 1.17-1.97 2.77-5.23 2.77-3.73 0-5.33-2.3-5.33-4.64 0-3.41 2.72-4.96 7.47-4.96h3.04v-1.6c0-1.55-.48-3.63-4.11-3.63-3.2 0-3.68 1.66-4 2.94h-1.6c.16-1.7 1.23-4.32 5.65-4.32 3.63 0 5.66 1.5 5.66 4.85v8.05Zm-1.55-4.97h-3.1c-3.51 0-5.7.91-5.7 3.58 0 1.97 1.39 3.25 3.63 3.25 4.58 0 5.17-2.93 5.17-6.24v-.59Zm6.67 3.63c.53 1.97 2.02 3.2 4.53 3.2 2.83 0 3.95-1.28 3.95-3.04s-.75-2.61-4.27-3.47c-4.16-.96-5.17-2.13-5.17-4.16 0-2.13 1.65-4.16 5.22-4.16 3.58 0 5.34 2.14 5.6 4.38h-1.6c-.26-1.34-1.33-2.94-4.05-2.94-2.72 0-3.57 1.34-3.57 2.56 0 1.44.8 2.14 3.94 2.88 4.48 1.07 5.6 2.46 5.6 4.8 0 2.83-2.34 4.54-5.7 4.54-3.63 0-5.66-1.82-6.14-4.64l1.66.05Zm14.5 0c.54 1.97 2.03 3.2 4.54 3.2 2.82 0 3.94-1.28 3.94-3.04s-.74-2.61-4.26-3.47c-4.16-.96-5.18-2.13-5.18-4.16 0-2.13 1.66-4.16 5.23-4.16 3.57 0 5.33 2.14 5.6 4.38H160c-.32-1.34-1.33-2.94-4.05-2.94-2.72 0-3.58 1.34-3.58 2.56 0 1.44.8 2.14 3.95 2.88 4.48 1.07 5.6 2.46 5.6 4.8 0 2.83-2.4 4.54-5.7 4.54-3.63 0-5.66-1.82-6.14-4.64l1.65.05Zm14.14-18.13h1.6V8h-1.6V5.07Zm0 7.3h1.6v15.47h-1.6V12.37Zm7.57 15.47V13.81h-2.67v-1.44h2.67v-2.24c0-2.6.8-5.44 4.37-5.44.53 0 1.05.08 1.55.22v1.5a7.9 7.9 0 0 0-1.7-.17c-1.93 0-2.62 1.28-2.62 3.95v2.13h3.47v1.55h-3.47v14.02l-1.6-.05Zm8-22.83h1.6v3h-1.6V5Zm0 7.36h1.6v15.47h-1.6V12.37Zm7.15 7.52c.05 4 2.13 6.46 5.17 6.46s4-1.6 4.59-2.88h1.6c-.64 2.02-2.35 4.37-6.24 4.37-4.8 0-6.72-4.05-6.72-8 0-4.43 2.24-8.27 6.93-8.27 4.9 0 6.45 4.11 6.45 7.04v1.28H188.6Zm10.13-1.33c-.05-3.1-1.76-5.5-4.9-5.5-3.26 0-4.8 2.25-5.13 5.5h10.03ZM216.69 4.7v22.72h-1.54c-.06-.88-.08-1.77-.06-2.66-.8 1.92-2.61 3.04-5.33 3.04-4.16 0-6.61-3.3-6.61-7.95 0-4.8 2.66-8.27 6.98-8.27 3.2 0 4.48 1.34 4.96 2.3V4.64l1.6.05ZM204.8 19.8c0 4.26 2.24 6.5 5.01 6.5 4.22 0 5.34-2.77 5.34-6.98 0-4-1.02-6.3-5.07-6.3-3.15 0-5.28 2.46-5.28 6.78Zm16.9 3.36c.54 1.97 2.03 3.2 4.54 3.2 2.83 0 4-1.28 4-3.04s-.8-2.62-4.32-3.47c-4.1-.96-5.17-2.13-5.17-4.16 0-2.13 1.7-4.16 5.28-4.16 3.57 0 5.33 2.13 5.54 4.37h-1.6c-.26-1.33-1.33-2.93-4-2.93-2.66 0-3.57 1.44-3.57 2.67 0 1.38.75 2.13 3.9 2.82 4.47 1.07 5.6 2.51 5.6 4.8 0 2.83-2.35 4.6-5.66 4.6-3.68 0-5.7-1.88-6.13-4.65l1.6-.05Z" opacity=".8"/><path fill="#76C5A7" d="M17.97 17.97a6.93 6.93 0 1 1-9.85-9.76 6.93 6.93 0 0 1 9.85 9.76Zm-7.89-7.89a4.27 4.27 0 1 0 5.97 0 4.27 4.27 0 0 0-5.92.05l-.05-.05ZM6.72 21.33 4.8 23.25l8.27 8.22 1.92-1.87 6.29-6.35h.05l-1.86-1.92a10.45 10.45 0 0 1-12.75 0Z"/><path fill="#76C5A7" d="M3.84 3.84a13.12 13.12 0 0 0-.9 17.5l1.91-1.93a10.4 10.4 0 1 1 16.48 0l1.92 1.92A13.07 13.07 0 0 0 3.84 3.84Z"/></g><defs><clipPath id="a"><path fill="#fff" d="M0 0h231.89v32H0z"/></clipPath></defs></svg>
